<svg width="18" height="20" viewBox="0 0 18 20" fill="none" xmlns="http://www.w3.org/2000/svg">
<path fill-rule="evenodd" clip-rule="evenodd" d="M11.6878 2.01581H10.6686V6.47638C10.6686 6.87443 10.7026 7.1442 10.7591 7.31515C10.8616 7.60057 11.0887 7.73407 11.4177 7.73407C11.7906 7.73407 12.1785 7.50788 12.5855 7.04139V7.65643H13.6075V2.01581H12.5855V6.32722C12.3587 6.64732 12.1442 6.80568 11.9398 6.80568C11.8029 6.80568 11.7225 6.72466 11.7001 6.5663C11.6878 6.53285 11.6878 6.40857 11.6878 6.16891V6.16886V2.01581ZM7.1281 2.5262C6.91081 2.81131 6.80831 3.25203 6.80831 3.8551V5.83034C6.80831 6.42973 6.91081 6.87474 7.1281 7.15678C7.41076 7.54164 7.80882 7.73407 8.31828 7.73407C8.8302 7.73407 9.22795 7.54164 9.51061 7.15678C9.72483 6.87474 9.82733 6.43003 9.82733 5.83034V3.8551C9.82733 3.25203 9.72483 2.811 9.51061 2.5262C9.22795 2.14042 8.8302 1.94768 8.31828 1.94768C7.80882 1.94768 7.41076 2.14042 7.1281 2.5262ZM4.87971 3.0596L4.07501 0.0872192H2.88268C3.0007 0.434141 3.12119 0.781737 3.24171 1.12942L3.24171 1.12942C3.36502 1.48516 3.48837 1.84099 3.60912 2.19627C3.97281 3.25203 4.19961 4.04783 4.30242 4.59105V7.65673H5.43552V4.59105L6.7991 0.0872192H5.65281L4.87971 3.0596ZM15.2663 19.681C16.1425 19.5831 16.8702 18.9263 17.0752 18.0366C17.3671 16.7694 17.3683 15.3855 17.3683 14.0806V14.0561C17.3683 12.7583 17.3683 11.3842 17.0792 10.1246C16.8739 9.23453 16.1459 8.57806 15.2697 8.48016C13.1944 8.24845 11.0939 8.24722 9.00299 8.24845C6.91143 8.24722 4.81097 8.24845 2.73567 8.48016C1.85946 8.57776 1.13209 9.23453 0.927384 10.1246C0.635824 11.3921 0.632141 12.7756 0.632141 14.0806C0.632141 15.3855 0.632141 16.7694 0.924008 18.0366C1.12841 18.9266 1.85639 19.5831 2.7326 19.681C4.80759 19.9127 6.90836 19.9139 8.9993 19.9127C11.0912 19.9139 13.1907 19.9127 15.2663 19.681ZM13.4036 12.4659C13.6957 12.0838 14.0975 11.8939 14.6149 11.8939C15.1225 11.8939 15.5249 12.0841 15.8075 12.4653C16.0196 12.7477 16.1206 13.1841 16.1206 13.7804V14.9365H14.0975V15.9266C14.0975 16.4428 14.2675 16.7006 14.6149 16.7006C14.8638 16.7006 15.0093 16.5656 15.067 16.2952C15.0759 16.2403 15.0891 16.0153 15.0891 15.6102H16.1206V15.7572C16.1206 16.0834 16.1086 16.3078 16.0991 16.4091C16.0653 16.6331 15.9856 16.836 15.8628 17.0152C15.5829 17.4206 15.1683 17.6204 14.6401 17.6204C14.111 17.6204 13.708 17.4298 13.4161 17.0486C13.2007 16.7691 13.0911 16.3296 13.0911 15.7363V13.781C13.0911 13.1847 13.189 12.7483 13.4036 12.4659ZM14.0981 14.095H15.1096V13.5785C15.1096 13.0626 14.9402 12.8041 14.6057 12.8041C14.2678 12.8041 14.0981 13.0622 14.0981 13.5785V14.095ZM7.45026 16.2277C7.22592 16.5447 7.01385 16.7009 6.81067 16.7009C6.67564 16.7009 6.5986 16.6214 6.57405 16.4643C6.56484 16.4317 6.56484 16.3084 6.56484 16.0714V11.962H5.55328V16.375C5.55328 16.7693 5.58735 17.0357 5.64259 17.2051C5.74418 17.4881 5.96883 17.6207 6.29415 17.6207C6.66643 17.6207 7.04822 17.396 7.45026 16.9351V17.544H8.46244V11.962H7.45026V16.2277ZM10.3485 12.4992C10.6747 12.0972 11.0218 11.894 11.3938 11.894C11.7958 11.894 12.0671 12.1057 12.2019 12.5244C12.2697 12.7487 12.3044 13.1176 12.3044 13.6461V15.8687C12.3044 16.3852 12.2697 16.7569 12.2019 16.9935C12.0668 17.4091 11.7961 17.6208 11.3938 17.6208C11.0338 17.6208 10.687 17.4207 10.3485 17.003V17.5438H9.33722V10.0526H10.3485V12.4992ZM10.8524 16.701C11.1446 16.701 11.2925 16.4525 11.2925 15.9479V13.5657C11.2925 13.0624 11.1443 12.804 10.8524 12.804C10.6864 12.804 10.5173 12.8831 10.3482 13.0504V16.4521C10.5173 16.6216 10.6864 16.701 10.8524 16.701ZM1.88019 11.1068H3.06945V17.5435H4.19456V11.1068H5.40591V10.0526H1.88019V11.1068ZM8.80597 6.02242C8.80597 6.54416 8.64792 6.80533 8.31861 6.80533C7.98899 6.80533 7.83063 6.54446 7.83063 6.02242V3.64973C7.83063 3.12799 7.98899 2.86774 8.31861 2.86774C8.64792 2.86774 8.80597 3.12769 8.80597 3.64973V6.02242Z" fill="#222222"/>
</svg>
